<svg xmlns="http://www.w3.org/2000/svg" width="256" height="256" viewBox="0 0 100 100"><rect width="100" height="100" rx="20" fill="#0065fc"></rect><path fill="#fff" d="M78.66 61.95L78.66 61.95Q80.19 61.95 80.19 66.09L80.19 66.09Q80.19 68.34 78.31 71.53Q76.42 74.73 73.40 77.38Q70.39 80.04 66.70 81.75Q63.01 83.46 59.67 83.46Q56.34 83.46 54.45 82.20Q52.56 80.94 51.48 78.78L51.48 78.78Q49.95 75.72 48.97 67.12Q47.98 58.53 46.98 55.11L46.98 55.11Q44.65 54.66 42.89 53.26Q41.14 51.87 41.14 49.84Q41.14 47.82 42.98 46.92Q44.83 46.02 47.21 46.02Q49.59 46.02 51.48 47.19L51.48 47.19Q54.01 45.12 55.58 42.28Q57.16 39.45 57.16 34.63Q57.16 29.82 53.92 26.94Q50.67 24.06 44.42 24.06Q38.17 24.06 34.84 25.05Q31.51 26.04 29.12 27.21Q26.74 28.38 24.89 29.37Q23.05 30.36 21.43 30.36Q19.81 30.36 19.81 29.32Q19.81 28.29 21.52 25.95Q23.23 23.61 26.56 21.27L26.56 21.27Q34.93 15.42 45.45 15.46Q55.98 15.51 62.83 19.47L62.83 19.47Q70.84 24.15 70.84 33.51L70.84 33.51Q70.92 41.25 66.78 46.38Q62.64 51.51 56.53 53.76L56.53 53.76Q57.88 56.73 58.73 60.15Q59.59 63.57 60.39 66.45Q61.20 69.33 62.24 71.22Q63.28 73.11 64.76 73.11Q66.25 73.11 68.36 71.35Q70.48 69.60 72.55 67.53Q74.62 65.46 76.28 63.70Q77.95 61.95 78.66 61.95ZM39.52 29.55L39.52 29.55Q40.69 29.55 40.69 32.61Q40.69 35.67 40.33 38.37L40.33 38.37Q39.52 43.59 38.26 48.09L38.26 48.09Q35.02 60.33 35.02 62.40L35.02 62.40L35.02 75.63Q35.02 80.49 31.33 82.29L31.33 82.29Q29.62 83.10 28.04 83.82Q26.47 84.54 24.49 84.54L24.49 84.54Q20.71 84.54 20.71 75.85Q20.71 67.17 24.76 53.94Q28.81 40.71 33.22 33.78L33.22 33.78Q34.12 32.43 35.83 30.99Q37.54 29.55 39.52 29.55Z"></path></svg>